# xmcd CD database file
#
# Track frame offsets:
#	183
#	13403
#	28635
#	45240
#	59625
#	72755
#	86808
#	102970
#	115000
#	129918
#	143658
#	160583
#
# Disc length: 2315 seconds
#
# Revision: 0
# Processed by: cddbd v1.4PL0 Copyright (c) Steve Scherf et al.
# Submitted via: CDex 1.50Beta5
#
DISCID=9809090c
DTITLE=Jeff Turner - Cowboys Truckers and Lovers
DYEAR=1900
DGENRE=Country
TTITLE0=You can have her
TTITLE1=Devil's Ravine
TTITLE2=You're gonna Love yourself
TTITLE3=Sixteen Tons
TTITLE4=Wind blows its own Way
TTITLE5=Me or your Guitar
TTITLE6=Tennessee Roads
TTITLE7=If You Wanna know
TTITLE8=Auctioneer
TTITLE9=Highway Queen
TTITLE10=Train Medley
TTITLE11=Special Lady
EXTD=
EXTT0=
EXTT1=
EXTT2=
EXTT3=
EXTT4=
EXTT5=
EXTT6=
EXTT7=
EXTT8=
EXTT9=
EXTT10=
EXTT11=
PLAYORDER=
